<svg width="198" height="28" viewBox="0 0 198 28" fill="none" xmlns="http://www.w3.org/2000/svg">
<g clip-path="url(#clip0_838_48860)">
<path fill-rule="evenodd" clip-rule="evenodd" d="M15.9134 21.6868C15.5916 21.637 15.2687 21.591 14.9475 21.5367C13.3117 21.2602 11.7128 20.8707 10.339 19.8307C9.67029 19.3241 9.14927 18.7044 9.02844 17.8085C9.01571 17.7131 9.00154 17.6171 9.00154 17.5215C8.99962 15.8558 8.99986 14.1906 9.00034 12.5251C9.00034 12.4728 9.00754 12.4203 9.01523 12.3142C9.4971 12.5376 9.95999 12.737 10.4049 12.9734C10.4832 13.015 10.5163 13.2119 10.5173 13.3375C10.5257 14.4981 10.5403 15.6587 10.5163 16.8185C10.4985 17.6809 10.8416 18.2973 11.5408 18.7319C12.5759 19.3756 13.7143 19.7189 14.8889 19.8907C16.6581 20.1499 18.4407 20.1101 20.2248 20.0506C21.3634 20.0126 22.4828 19.9125 23.5775 19.5777C24.3819 19.3321 25.1612 19.0268 25.8283 18.4787C26.2597 18.1244 26.4701 17.6596 26.4672 17.0804C26.4595 15.5976 26.4691 14.1148 26.4574 12.6322C26.4552 12.3838 26.528 12.2704 26.7591 12.2071C27.1444 12.1018 27.5208 11.9602 27.9477 11.8184C27.9623 11.9852 27.9837 12.1163 27.9837 12.2477C27.9861 13.8916 27.9472 15.5368 27.9981 17.1788C28.0341 18.3449 27.5563 19.1762 26.6981 19.8314C25.5936 20.6748 24.3394 21.1484 22.9957 21.3323C21.9567 21.4744 20.9063 21.5244 19.8611 21.619C19.7619 21.628 19.6651 21.6635 19.5671 21.6868H15.9134Z" fill="#7D7E7F"/>
<mask id="mask0_838_48860" style="mask-type:luminance" maskUnits="userSpaceOnUse" x="0" y="0" width="37" height="14">
<path fill-rule="evenodd" clip-rule="evenodd" d="M0 0H36.8163V13.585H0V0Z" fill="white"/>
</mask>
<g mask="url(#mask0_838_48860)">
<path fill-rule="evenodd" clip-rule="evenodd" d="M8.61492 10.4088C9.42486 10.1287 10.1598 9.86721 10.9016 9.62723C10.9958 9.59678 11.1324 9.66407 11.2384 9.7114C12.56 10.3019 13.8816 10.8924 15.1981 11.4942C15.5126 11.6379 15.8114 11.6571 16.1426 11.5561C21.1805 10.0159 26.2201 8.4818 31.2592 6.94517C31.3709 6.91115 31.4786 6.86305 31.6646 6.79243C31.4974 6.7144 31.4001 6.6599 31.2964 6.62153C27.0873 5.05727 22.8766 3.49737 18.6698 1.92672C18.2808 1.78139 17.9262 1.77935 17.5339 1.91699C13.2574 3.41729 8.97706 4.90632 4.69799 6.39919C4.5989 6.43373 4.50336 6.47825 4.30923 6.55808C4.96155 6.87123 5.53023 7.14397 6.17672 7.45457C5.39744 7.72116 4.6952 7.96524 3.98865 8.19729C3.91947 8.22006 3.8181 8.18552 3.74562 8.14894C2.52918 7.53849 1.31527 6.92368 0.101623 6.30811C0.0752671 6.29481 0.0582877 6.26308 0 6.19963C0.560068 5.99879 1.09454 5.80179 1.63256 5.61451C6.42584 3.94612 11.2191 2.27825 16.0137 0.613705C16.5474 0.428471 17.091 0.273171 17.6249 0.0889608C17.9574 -0.0256591 18.2722 -0.0338462 18.6082 0.0897283C20.3224 0.720138 22.0472 1.32112 23.7568 1.96458C28.011 3.56542 32.2589 5.1834 36.5091 6.79525C36.5882 6.82518 36.664 6.86356 36.8165 6.9311C36.4967 7.03395 36.2458 7.11608 35.9939 7.19539C29.3103 9.29923 22.6263 11.4013 15.944 13.5087C15.5466 13.6341 15.1794 13.6046 14.8086 13.4235C12.9006 12.492 10.9905 11.5648 9.08097 10.6363C8.94741 10.5713 8.81436 10.5061 8.61492 10.4088" fill="#7D7E7F"/>
</g>
<path fill-rule="evenodd" clip-rule="evenodd" d="M17.9928 5.90909C16.848 6.29173 15.704 6.67719 14.5579 7.05648C12.0854 7.87476 9.61339 8.69406 7.13757 9.50127C6.82418 9.60343 6.73981 9.79462 6.74083 10.0949C6.7475 12.4934 6.74724 14.8921 6.74878 17.2908C6.74904 17.7339 6.74827 17.7342 6.29691 17.7345C5.96634 17.7345 5.63525 17.7226 5.30545 17.7381C5.07695 17.7491 4.99411 17.6737 5.00078 17.438C5.0154 16.919 5.00514 16.3992 5.00514 15.8797C5.00514 13.4699 5.00873 11.0601 5.00001 8.65057C4.99899 8.40149 5.06746 8.28853 5.31468 8.20773C8.60552 7.13445 11.8917 6.04728 15.1805 4.96782C15.3013 4.92819 15.4537 4.88677 15.5629 4.92588C16.3792 5.21665 17.1886 5.52749 18 5.8319C17.9977 5.85763 17.9951 5.88336 17.9928 5.90909" fill="#1B58A5"/>
<path d="M54.688 20.1346C53.8347 20.1346 53.04 19.9959 52.304 19.7186C51.5787 19.4306 50.944 19.0306 50.4 18.5186C49.8667 17.9959 49.4507 17.3826 49.152 16.6786C48.8533 15.9746 48.704 15.2066 48.704 14.3746C48.704 13.5426 48.8533 12.7746 49.152 12.0706C49.4507 11.3666 49.872 10.7586 50.416 10.2466C50.96 9.72394 51.5947 9.32394 52.32 9.04661C53.0453 8.75861 53.84 8.61461 54.704 8.61461C55.6213 8.61461 56.4587 8.77461 57.216 9.09461C57.9733 9.40394 58.6133 9.86794 59.136 10.4866L57.792 11.7506C57.3867 11.3133 56.9333 10.9879 56.432 10.7746C55.9307 10.5506 55.3867 10.4386 54.8 10.4386C54.2133 10.4386 53.6747 10.5346 53.184 10.7266C52.704 10.9186 52.2827 11.1906 51.92 11.5426C51.568 11.8946 51.2907 12.3106 51.088 12.7906C50.896 13.2706 50.8 13.7986 50.8 14.3746C50.8 14.9506 50.896 15.4786 51.088 15.9586C51.2907 16.4386 51.568 16.8546 51.92 17.2066C52.2827 17.5586 52.704 17.8306 53.184 18.0226C53.6747 18.2146 54.2133 18.3106 54.8 18.3106C55.3867 18.3106 55.9307 18.2039 56.432 17.9906C56.9333 17.7666 57.3867 17.4306 57.792 16.9826L59.136 18.2626C58.6133 18.8706 57.9733 19.3346 57.216 19.6546C56.4587 19.9746 55.616 20.1346 54.688 20.1346ZM60.5564 19.9746V11.4306H62.4604V13.7826L62.2364 13.0946C62.4924 12.5186 62.8924 12.0813 63.4364 11.7826C63.991 11.4839 64.679 11.3346 65.5004 11.3346V13.2386C65.415 13.2173 65.335 13.2066 65.2604 13.2066C65.1857 13.1959 65.111 13.1906 65.0364 13.1906C64.279 13.1906 63.6764 13.4146 63.2284 13.8626C62.7804 14.2999 62.5564 14.9559 62.5564 15.8306V19.9746H60.5564ZM70.7189 20.0866C69.8442 20.0866 69.0655 19.8999 68.3829 19.5266C67.7002 19.1426 67.1615 18.6199 66.7669 17.9586C66.3722 17.2973 66.1749 16.5453 66.1749 15.7026C66.1749 14.8493 66.3722 14.0973 66.7669 13.4466C67.1615 12.7853 67.7002 12.2679 68.3829 11.8946C69.0655 11.5213 69.8442 11.3346 70.7189 11.3346C71.6042 11.3346 72.3882 11.5213 73.0709 11.8946C73.7642 12.2679 74.3029 12.7799 74.6869 13.4306C75.0815 14.0813 75.2789 14.8386 75.2789 15.7026C75.2789 16.5453 75.0815 17.2973 74.6869 17.9586C74.3029 18.6199 73.7642 19.1426 73.0709 19.5266C72.3882 19.8999 71.6042 20.0866 70.7189 20.0866ZM70.7189 18.3746C71.2095 18.3746 71.6469 18.2679 72.0309 18.0546C72.4149 17.8413 72.7135 17.5319 72.9269 17.1266C73.1509 16.7213 73.2629 16.2466 73.2629 15.7026C73.2629 15.1479 73.1509 14.6733 72.9269 14.2786C72.7135 13.8733 72.4149 13.5639 72.0309 13.3506C71.6469 13.1373 71.2149 13.0306 70.7349 13.0306C70.2442 13.0306 69.8069 13.1373 69.4229 13.3506C69.0495 13.5639 68.7509 13.8733 68.5269 14.2786C68.3029 14.6733 68.1909 15.1479 68.1909 15.7026C68.1909 16.2466 68.3029 16.7213 68.5269 17.1266C68.7509 17.5319 69.0495 17.8413 69.4229 18.0546C69.8069 18.2679 70.2389 18.3746 70.7189 18.3746ZM79.5914 20.0866C78.8767 20.0866 78.1887 19.9959 77.5274 19.8146C76.8767 19.6226 76.3594 19.3933 75.9754 19.1266L76.7434 17.6066C77.1274 17.8519 77.586 18.0546 78.1194 18.2146C78.6527 18.3746 79.186 18.4546 79.7194 18.4546C80.3487 18.4546 80.802 18.3693 81.0794 18.1986C81.3674 18.0279 81.5114 17.7986 81.5114 17.5106C81.5114 17.2759 81.4154 17.0999 81.2234 16.9826C81.0314 16.8546 80.7807 16.7586 80.4714 16.6946C80.162 16.6306 79.8154 16.5719 79.4314 16.5186C79.058 16.4653 78.6794 16.3959 78.2954 16.3106C77.922 16.2146 77.5807 16.0813 77.2714 15.9106C76.962 15.7293 76.7114 15.4893 76.5194 15.1906C76.3274 14.8919 76.2314 14.4973 76.2314 14.0066C76.2314 13.4626 76.386 12.9933 76.6954 12.5986C77.0047 12.1933 77.4367 11.8839 77.9914 11.6706C78.5567 11.4466 79.2234 11.3346 79.9914 11.3346C80.5674 11.3346 81.1487 11.3986 81.7354 11.5266C82.322 11.6546 82.8074 11.8359 83.1914 12.0706L82.4234 13.5906C82.018 13.3453 81.6074 13.1799 81.1914 13.0946C80.786 12.9986 80.3807 12.9506 79.9754 12.9506C79.3674 12.9506 78.914 13.0413 78.6154 13.2226C78.3274 13.4039 78.1834 13.6333 78.1834 13.9106C78.1834 14.1666 78.2794 14.3586 78.4714 14.4866C78.6634 14.6146 78.914 14.7159 79.2234 14.7906C79.5327 14.8653 79.874 14.9293 80.2474 14.9826C80.6314 15.0253 81.01 15.0946 81.3834 15.1906C81.7567 15.2866 82.098 15.4199 82.4074 15.5906C82.7274 15.7506 82.9834 15.9799 83.1754 16.2786C83.3674 16.5773 83.4634 16.9666 83.4634 17.4466C83.4634 17.9799 83.3034 18.4439 82.9834 18.8386C82.674 19.2333 82.2314 19.5426 81.6554 19.7666C81.0794 19.9799 80.3914 20.0866 79.5914 20.0866ZM87.5858 20.0866C86.8711 20.0866 86.1831 19.9959 85.5218 19.8146C84.8711 19.6226 84.3538 19.3933 83.9698 19.1266L84.7378 17.6066C85.1218 17.8519 85.5804 18.0546 86.1138 18.2146C86.6471 18.3746 87.1804 18.4546 87.7138 18.4546C88.3431 18.4546 88.7964 18.3693 89.0738 18.1986C89.3618 18.0279 89.5058 17.7986 89.5058 17.5106C89.5058 17.2759 89.4098 17.0999 89.2178 16.9826C89.0258 16.8546 88.7751 16.7586 88.4658 16.6946C88.1564 16.6306 87.8098 16.5719 87.4258 16.5186C87.0524 16.4653 86.6738 16.3959 86.2898 16.3106C85.9164 16.2146 85.5751 16.0813 85.2658 15.9106C84.9564 15.7293 84.7058 15.4893 84.5138 15.1906C84.3218 14.8919 84.2258 14.4973 84.2258 14.0066C84.2258 13.4626 84.3804 12.9933 84.6898 12.5986C84.9991 12.1933 85.4311 11.8839 85.9858 11.6706C86.5511 11.4466 87.2178 11.3346 87.9858 11.3346C88.5618 11.3346 89.1431 11.3986 89.7298 11.5266C90.3164 11.6546 90.8018 11.8359 91.1858 12.0706L90.4178 13.5906C90.0124 13.3453 89.6018 13.1799 89.1858 13.0946C88.7804 12.9986 88.3751 12.9506 87.9698 12.9506C87.3618 12.9506 86.9084 13.0413 86.6098 13.2226C86.3218 13.4039 86.1778 13.6333 86.1778 13.9106C86.1778 14.1666 86.2738 14.3586 86.4658 14.4866C86.6578 14.6146 86.9084 14.7159 87.2178 14.7906C87.5271 14.8653 87.8684 14.9293 88.2418 14.9826C88.6258 15.0253 89.0044 15.0946 89.3778 15.1906C89.7511 15.2866 90.0924 15.4199 90.4018 15.5906C90.7218 15.7506 90.9778 15.9799 91.1698 16.2786C91.3618 16.5773 91.4578 16.9666 91.4578 17.4466C91.4578 17.9799 91.2978 18.4439 90.9778 18.8386C90.6684 19.2333 90.2258 19.5426 89.6498 19.7666C89.0738 19.9799 88.3858 20.0866 87.5858 20.0866ZM97.314 19.9746V8.77461H105.49V10.5186H99.394V18.2306H105.714V19.9746H97.314ZM99.234 15.1426V13.4306H104.802V15.1426H99.234ZM107.601 19.9746V11.4306H109.505V13.7346L109.169 13.0306C109.467 12.4866 109.899 12.0706 110.465 11.7826C111.041 11.4839 111.702 11.3346 112.449 11.3346C113.131 11.3346 113.739 11.4679 114.273 11.7346C114.817 12.0013 115.243 12.4119 115.553 12.9666C115.862 13.5106 116.017 14.2146 116.017 15.0786V19.9746H114.017V15.3346C114.017 14.5773 113.835 14.0119 113.473 13.6386C113.121 13.2653 112.625 13.0786 111.985 13.0786C111.515 13.0786 111.099 13.1746 110.737 13.3666C110.374 13.5586 110.091 13.8466 109.889 14.2306C109.697 14.6039 109.601 15.0786 109.601 15.6546V19.9746H107.601ZM118.314 19.9746V11.4306H120.218V13.7826L119.994 13.0946C120.25 12.5186 120.65 12.0813 121.194 11.7826C121.749 11.4839 122.437 11.3346 123.258 11.3346V13.2386C123.173 13.2173 123.093 13.2066 123.018 13.2066C122.943 13.1959 122.869 13.1906 122.794 13.1906C122.037 13.1906 121.434 13.4146 120.986 13.8626C120.538 14.2999 120.314 14.9559 120.314 15.8306V19.9746H118.314ZM128.476 20.0866C127.602 20.0866 126.823 19.8999 126.14 19.5266C125.458 19.1426 124.919 18.6199 124.524 17.9586C124.13 17.2973 123.932 16.5453 123.932 15.7026C123.932 14.8493 124.13 14.0973 124.524 13.4466C124.919 12.7853 125.458 12.2679 126.14 11.8946C126.823 11.5213 127.602 11.3346 128.476 11.3346C129.362 11.3346 130.146 11.5213 130.828 11.8946C131.522 12.2679 132.06 12.7799 132.444 13.4306C132.839 14.0813 133.036 14.8386 133.036 15.7026C133.036 16.5453 132.839 17.2973 132.444 17.9586C132.06 18.6199 131.522 19.1426 130.828 19.5266C130.146 19.8999 129.362 20.0866 128.476 20.0866ZM128.476 18.3746C128.967 18.3746 129.404 18.2679 129.788 18.0546C130.172 17.8413 130.471 17.5319 130.684 17.1266C130.908 16.7213 131.02 16.2466 131.02 15.7026C131.02 15.1479 130.908 14.6733 130.684 14.2786C130.471 13.8733 130.172 13.5639 129.788 13.3506C129.404 13.1373 128.972 13.0306 128.492 13.0306C128.002 13.0306 127.564 13.1373 127.18 13.3506C126.807 13.5639 126.508 13.8733 126.284 14.2786C126.06 14.6733 125.948 15.1479 125.948 15.7026C125.948 16.2466 126.06 16.7213 126.284 17.1266C126.508 17.5319 126.807 17.8413 127.18 18.0546C127.564 18.2679 127.996 18.3746 128.476 18.3746ZM134.709 19.9746V8.10261H136.709V19.9746H134.709ZM139.094 19.9746V8.10261H141.094V19.9746H139.094ZM143.479 19.9746V11.4306H145.383V13.7026L145.047 13.0306C145.335 12.4759 145.751 12.0546 146.295 11.7666C146.85 11.4786 147.479 11.3346 148.183 11.3346C148.983 11.3346 149.676 11.5319 150.263 11.9266C150.86 12.3213 151.255 12.9186 151.447 13.7186L150.663 13.4466C150.94 12.8066 151.399 12.2946 152.039 11.9106C152.679 11.5266 153.42 11.3346 154.263 11.3346C154.946 11.3346 155.548 11.4679 156.071 11.7346C156.604 12.0013 157.02 12.4119 157.319 12.9666C157.618 13.5106 157.767 14.2146 157.767 15.0786V19.9746H155.767V15.3346C155.767 14.5773 155.602 14.0119 155.271 13.6386C154.94 13.2653 154.466 13.0786 153.847 13.0786C153.41 13.0786 153.02 13.1746 152.679 13.3666C152.348 13.5586 152.087 13.8413 151.895 14.2146C151.714 14.5879 151.623 15.0626 151.623 15.6386V19.9746H149.623V15.3346C149.623 14.5773 149.458 14.0119 149.127 13.6386C148.796 13.2653 148.322 13.0786 147.703 13.0786C147.266 13.0786 146.876 13.1746 146.535 13.3666C146.204 13.5586 145.943 13.8413 145.751 14.2146C145.57 14.5879 145.479 15.0626 145.479 15.6386V19.9746H143.479ZM164.114 20.0866C163.165 20.0866 162.333 19.8999 161.618 19.5266C160.914 19.1426 160.365 18.6199 159.97 17.9586C159.586 17.2973 159.394 16.5453 159.394 15.7026C159.394 14.8493 159.581 14.0973 159.954 13.4466C160.338 12.7853 160.861 12.2679 161.522 11.8946C162.194 11.5213 162.957 11.3346 163.81 11.3346C164.642 11.3346 165.384 11.5159 166.034 11.8786C166.685 12.2413 167.197 12.7533 167.57 13.4146C167.944 14.0759 168.13 14.8546 168.13 15.7506C168.13 15.8359 168.125 15.9319 168.114 16.0386C168.114 16.1453 168.109 16.2466 168.098 16.3426H160.978V15.0146H167.042L166.258 15.4306C166.269 14.9399 166.168 14.5079 165.954 14.1346C165.741 13.7613 165.448 13.4679 165.074 13.2546C164.712 13.0413 164.29 12.9346 163.81 12.9346C163.32 12.9346 162.888 13.0413 162.514 13.2546C162.152 13.4679 161.864 13.7666 161.65 14.1506C161.448 14.5239 161.346 14.9666 161.346 15.4786V15.7986C161.346 16.3106 161.464 16.7639 161.698 17.1586C161.933 17.5533 162.264 17.8573 162.69 18.0706C163.117 18.2839 163.608 18.3906 164.162 18.3906C164.642 18.3906 165.074 18.3159 165.458 18.1666C165.842 18.0173 166.184 17.7826 166.482 17.4626L167.554 18.6946C167.17 19.1426 166.685 19.4893 166.098 19.7346C165.522 19.9693 164.861 20.0866 164.114 20.0866ZM169.811 19.9746V11.4306H171.715V13.7346L171.379 13.0306C171.678 12.4866 172.11 12.0706 172.675 11.7826C173.251 11.4839 173.913 11.3346 174.659 11.3346C175.342 11.3346 175.95 11.4679 176.483 11.7346C177.027 12.0013 177.454 12.4119 177.763 12.9666C178.073 13.5106 178.227 14.2146 178.227 15.0786V19.9746H176.227V15.3346C176.227 14.5773 176.046 14.0119 175.683 13.6386C175.331 13.2653 174.835 13.0786 174.195 13.0786C173.726 13.0786 173.31 13.1746 172.947 13.3666C172.585 13.5586 172.302 13.8466 172.099 14.2306C171.907 14.6039 171.811 15.0786 171.811 15.6546V19.9746H169.811ZM183.74 20.0866C182.802 20.0866 182.076 19.8466 181.564 19.3666C181.052 18.8759 180.796 18.1559 180.796 17.2066V9.54261H182.796V17.1586C182.796 17.5639 182.898 17.8786 183.1 18.1026C183.314 18.3266 183.607 18.4386 183.98 18.4386C184.428 18.4386 184.802 18.3213 185.1 18.0866L185.66 19.5106C185.426 19.7026 185.138 19.8466 184.796 19.9426C184.455 20.0386 184.103 20.0866 183.74 20.0866ZM179.388 13.0306V11.4306H185.084V13.0306H179.388Z" fill="white"/>
</g>
<defs>
<clipPath id="clip0_838_48860">
<rect width="198" height="27.607" fill="white"/>
</clipPath>
</defs>
</svg>
